<svg width="90" height="90" viewBox="0 0 90 90" fill="none" xmlns="http://www.w3.org/2000/svg">
<path d="M28.7062 28.7062C30.058 27.3544 32.2497 27.3544 33.6015 28.7062L45 40.1046L56.3985 28.7062C57.7503 27.3544 59.942 27.3544 61.2938 28.7062C62.6456 30.058 62.6456 32.2497 61.2938 33.6015L49.8954 45L61.2938 56.3985C62.6456 57.7503 62.6456 59.942 61.2938 61.2938C59.942 62.6456 57.7503 62.6456 56.3985 61.2938L45 49.8954L33.6015 61.2938C32.2497 62.6456 30.058 62.6456 28.7062 61.2938C27.3544 59.942 27.3544 57.7503 28.7062 56.3985L40.1046 45L28.7062 33.6015C27.3544 32.2497 27.3544 30.058 28.7062 28.7062Z" fill="white"/>
<path fill-rule="evenodd" clip-rule="evenodd" d="M0 45C0 20.1556 20.1556 0 45 0C69.8444 0 90 20.1556 90 45C90 69.8444 69.8444 90 45 90C20.1556 90 0 69.8444 0 45ZM45 6.92308C23.9791 6.92308 6.92308 23.9791 6.92308 45C6.92308 66.0209 23.9791 83.0769 45 83.0769C66.0209 83.0769 83.0769 66.0209 83.0769 45C83.0769 23.9791 66.0209 6.92308 45 6.92308Z" fill="white"/>
</svg>
