<svg width="387" height="122" viewBox="0 0 387 122" fill="none" xmlns="http://www.w3.org/2000/svg">
<path d="M0 71.4208V81.0779C35.83 60.2341 47.7232 126.727 120.45 86.2819C123.043 84.845 125.254 82.4516 126.809 79.3985C128.363 76.3454 129.194 72.7669 129.197 69.1068C49.8497 119.261 37.5868 49.6498 1.6975 68.1743C1.19687 68.4329 0.76749 68.8805 0.464874 69.4593C0.162256 70.038 0.00032237 70.7213 0 71.4208Z" fill="#B1BE60"/>
<path d="M128.857 47.1525C105.047 33.3015 91.8072 58.0171 64.2604 64.2909C79.7716 67.8234 99.8224 65.5059 128.857 47.1525Z" fill="#EF980C"/>
<path d="M0 64.1726C36.983 42.6548 48.4653 114.191 127.661 65.1338C128.12 64.8498 128.508 64.4029 128.78 63.8448C129.052 63.2866 129.196 62.64 129.197 61.9797V52.1998C57.2674 97.6644 40.4661 44.711 11.2174 48.2131C8.15168 48.579 5.30183 50.4185 3.22667 53.371C1.15151 56.3234 0.000744137 60.1757 0 64.1726Z" fill="#B1BE60"/>
<path d="M0.340118 86.4679C24.1455 72.6169 37.3873 97.3325 64.9336 103.607C49.4189 107.138 29.3721 104.821 0.340118 86.4679Z" fill="#5F8E4E"/>
<path d="M175.584 99.56C174.688 100.328 173.472 100.936 171.936 101.384C170.4 101.896 168.576 102.152 166.464 102.152C163.84 102.152 161.568 101.768 159.648 101C157.728 100.296 156.448 99.272 155.808 97.928C155.104 96.392 154.272 93.96 153.312 90.632C152.416 87.304 151.52 83.656 150.624 79.688C149.728 75.72 148.864 71.688 148.032 67.592C147.264 63.496 146.656 59.88 146.208 56.744C147.104 55.848 148.288 55.08 149.76 54.44C151.296 53.736 152.96 53.384 154.752 53.384C156.992 53.384 158.816 53.896 160.224 54.92C161.696 55.88 162.592 57.576 162.912 60.008C163.552 64.872 164.096 68.904 164.544 72.104C164.992 75.24 165.344 77.832 165.6 79.88C165.92 81.864 166.144 83.4 166.272 84.488C166.464 85.512 166.624 86.344 166.752 86.984H167.136C167.328 85.96 167.648 84.488 168.096 82.568C168.608 80.584 169.184 78.344 169.824 75.848C170.464 73.352 171.136 70.664 171.84 67.784C172.544 64.84 173.248 61.928 173.952 59.048C175.232 58.344 176.48 57.8 177.696 57.416C178.976 57.032 180.544 56.84 182.4 56.84C184.64 56.84 186.56 57.192 188.16 57.896C189.76 58.6 190.784 59.688 191.232 61.16C192 63.976 192.736 66.728 193.44 69.416C194.144 72.04 194.784 74.504 195.36 76.808C195.936 79.048 196.448 81.064 196.896 82.856C197.344 84.584 197.664 85.96 197.856 86.984H198.336C199.04 82.056 199.712 76.936 200.352 71.624C201.056 66.312 201.696 60.904 202.272 55.4C203.424 54.696 204.64 54.184 205.92 53.864C207.2 53.544 208.48 53.384 209.76 53.384C212 53.384 213.856 53.864 215.328 54.824C216.8 55.784 217.536 57.448 217.536 59.816C217.536 60.84 217.376 62.376 217.056 64.424C216.736 66.472 216.32 68.776 215.808 71.336C215.296 73.896 214.688 76.584 213.984 79.4C213.344 82.216 212.672 84.936 211.968 87.56C211.328 90.184 210.688 92.552 210.048 94.664C209.472 96.776 208.96 98.408 208.512 99.56C207.616 100.328 206.24 100.936 204.384 101.384C202.528 101.896 200.544 102.152 198.432 102.152C193.056 102.152 189.888 100.808 188.928 98.12C188.544 96.968 188.064 95.528 187.488 93.8C186.912 92.008 186.304 90.056 185.664 87.944C185.024 85.832 184.416 83.656 183.84 81.416C183.264 79.112 182.784 76.904 182.4 74.792C181.952 77.032 181.408 79.368 180.768 81.8C180.128 84.168 179.456 86.504 178.752 88.808C178.112 91.048 177.504 93.128 176.928 95.048C176.352 96.904 175.904 98.408 175.584 99.56ZM281.591 71.432C281.591 69.448 281.015 68.008 279.863 67.112C278.775 66.152 277.271 65.672 275.351 65.672C274.071 65.672 272.791 65.832 271.511 66.152C270.295 66.472 269.239 66.952 268.343 67.592V100.904C267.703 101.096 266.679 101.288 265.271 101.48C263.927 101.672 262.519 101.768 261.047 101.768C259.639 101.768 258.359 101.672 257.207 101.48C256.119 101.288 255.191 100.904 254.423 100.328C253.655 99.752 253.047 98.984 252.599 98.024C252.215 97 252.023 95.688 252.023 94.088V65.288C252.023 63.56 252.375 62.152 253.079 61.064C253.847 59.976 254.871 58.984 256.151 58.088C258.327 56.552 261.047 55.304 264.311 54.344C267.639 53.384 271.319 52.904 275.351 52.904C282.583 52.904 288.151 54.504 292.055 57.704C295.959 60.84 297.911 65.224 297.911 70.856V100.904C297.271 101.096 296.247 101.288 294.839 101.48C293.495 101.672 292.087 101.768 290.615 101.768C289.207 101.768 287.927 101.672 286.775 101.48C285.687 101.288 284.759 100.904 283.991 100.328C283.223 99.752 282.615 98.984 282.167 98.024C281.783 97 281.591 95.688 281.591 94.088V71.432ZM330.744 52.904C334.392 52.904 337.688 53.384 340.632 54.344C343.64 55.24 346.168 56.424 348.216 57.896C349.496 58.792 350.488 59.784 351.192 60.872C351.96 61.96 352.344 63.368 352.344 65.096V98.696C352.344 102.088 351.704 105 350.424 107.432C349.144 109.928 347.384 111.976 345.144 113.576C342.968 115.24 340.376 116.456 337.368 117.224C334.424 117.992 331.256 118.376 327.864 118.376C322.04 118.376 317.464 117.576 314.136 115.976C310.808 114.44 309.144 111.912 309.144 108.392C309.144 106.92 309.432 105.608 310.008 104.456C310.648 103.368 311.352 102.536 312.12 101.96C313.976 102.984 316.056 103.848 318.36 104.552C320.728 105.256 323.16 105.608 325.656 105.608C329.112 105.608 331.864 105.032 333.912 103.88C335.96 102.728 336.984 100.872 336.984 98.312V96.776C334.36 97.928 331.16 98.504 327.384 98.504C324.504 98.504 321.752 98.088 319.128 97.256C316.568 96.36 314.296 95.016 312.312 93.224C310.392 91.368 308.824 89 307.608 86.12C306.456 83.24 305.88 79.816 305.88 75.848C305.88 71.944 306.488 68.552 307.704 65.672C308.984 62.792 310.712 60.424 312.888 58.568C315.128 56.648 317.752 55.24 320.76 54.344C323.832 53.384 327.16 52.904 330.744 52.904ZM336.696 66.824C336.248 66.568 335.576 66.312 334.68 66.056C333.848 65.8 332.792 65.672 331.512 65.672C328.376 65.672 326.008 66.568 324.408 68.36C322.872 70.088 322.104 72.584 322.104 75.848C322.104 79.56 322.872 82.248 324.408 83.912C326.008 85.512 328.024 86.312 330.456 86.312C333.08 86.312 335.16 85.704 336.696 84.488V66.824Z" fill="#B1BE60"/>
<path d="M224.546 41.384C224.546 38.952 225.346 36.904 226.946 35.24C228.61 33.576 230.786 32.744 233.474 32.744C236.162 32.744 238.306 33.576 239.906 35.24C241.57 36.904 242.402 38.952 242.402 41.384C242.402 43.816 241.57 45.864 239.906 47.528C238.306 49.192 236.162 50.024 233.474 50.024C230.786 50.024 228.61 49.192 226.946 47.528C225.346 45.864 224.546 43.816 224.546 41.384ZM241.634 100.904C240.93 101.032 239.874 101.192 238.466 101.384C237.122 101.64 235.746 101.768 234.338 101.768C232.93 101.768 231.65 101.672 230.498 101.48C229.41 101.288 228.482 100.904 227.714 100.328C226.946 99.752 226.338 98.984 225.89 98.024C225.506 97 225.314 95.688 225.314 94.088V55.016C226.018 54.888 227.042 54.728 228.386 54.536C229.794 54.28 231.202 54.152 232.609 54.152C234.018 54.152 235.266 54.248 236.354 54.44C237.506 54.632 238.466 55.016 239.234 55.592C240.002 56.168 240.578 56.968 240.962 57.992C241.41 58.952 241.634 60.232 241.634 61.832V100.904Z" fill="#5F8E4E"/>
<circle cx="233" cy="39" r="12" fill="#EF980C"/>
</svg>
