<svg width="90" height="90" viewBox="0 0 90 90" fill="none" xmlns="http://www.w3.org/2000/svg">
<path d="M38.4883 76.9724C47.0277 76.9707 55.3211 74.1121 62.0479 68.8518L83.1972 90L90 83.1976L68.8507 62.0494C74.114 55.3223 76.9745 47.0274 76.9765 38.4862C76.9765 17.2659 59.7097 0 38.4883 0C17.2668 0 0 17.2659 0 38.4862C0 59.7065 17.2668 76.9724 38.4883 76.9724ZM38.4883 9.62155C54.408 9.62155 67.3545 22.5674 67.3545 38.4862C67.3545 54.4051 54.408 67.3509 38.4883 67.3509C22.5686 67.3509 9.62207 54.4051 9.62207 38.4862C9.62207 22.5674 22.5686 9.62155 38.4883 9.62155Z" fill="white"/>
</svg>
