<svg width="90" height="96" viewBox="0 0 90 96" fill="none" xmlns="http://www.w3.org/2000/svg">
<path d="M86.4691 77.7442C84.2115 72.3965 80.9353 67.5391 76.8229 63.4424C72.7231 59.3339 67.8664 56.0582 62.5212 53.7962C62.4733 53.7722 62.4254 53.7603 62.3775 53.7363C69.8336 48.3507 74.6807 39.5782 74.6807 29.6807C74.6807 13.2845 61.3962 0 45 0C28.6038 0 15.3193 13.2845 15.3193 29.6807C15.3193 39.5782 20.1664 48.3507 27.6225 53.7483C27.5746 53.7722 27.5267 53.7842 27.4788 53.8081C22.1172 56.0701 17.306 59.3134 13.1771 63.4544C9.06857 67.5542 5.79287 72.4109 3.53086 77.7561C1.30867 82.9892 0.110189 88.5997 0.000299272 94.2839C-0.00289505 94.4117 0.0195094 94.5388 0.0661931 94.6577C0.112877 94.7766 0.182895 94.885 0.272121 94.9765C0.361348 95.0679 0.467978 95.1406 0.585728 95.1902C0.703478 95.2398 0.829967 95.2654 0.95774 95.2653H8.13854C8.66514 95.2653 9.08402 94.8464 9.09598 94.3318C9.33534 85.0925 13.0454 76.4396 19.6039 69.8812C26.3898 63.0953 35.4017 59.3613 45 59.3613C54.5983 59.3613 63.6103 63.0953 70.3961 69.8812C76.9546 76.4396 80.6647 85.0925 80.904 94.3318C80.916 94.8584 81.3349 95.2653 81.8615 95.2653H89.0423C89.17 95.2654 89.2965 95.2398 89.4143 95.1902C89.532 95.1406 89.6386 95.0679 89.7279 94.9765C89.8171 94.885 89.8871 94.7766 89.9338 94.6577C89.9805 94.5388 90.0029 94.4117 89.9997 94.2839C89.88 88.5632 88.6952 82.9981 86.4691 77.7442ZM45 50.2656C39.5067 50.2656 34.3365 48.1233 30.4469 44.2337C26.5573 40.3441 24.415 35.174 24.415 29.6807C24.415 24.1873 26.5573 19.0172 30.4469 15.1276C34.3365 11.238 39.5067 9.09568 45 9.09568C50.4933 9.09568 55.6635 11.238 59.5531 15.1276C63.4427 19.0172 65.585 24.1873 65.585 29.6807C65.585 35.174 63.4427 40.3441 59.5531 44.2337C55.6635 48.1233 50.4933 50.2656 45 50.2656Z" fill="white"/>
</svg>
